<svg id="Layer_1" enable-background="new 0 0 64 64" height="512" viewBox="0 0 64 64" width="512" xmlns="http://www.w3.org/2000/svg"><g><path d="m255.013 209.706c-7.193 0-247.807 0-255 0 0 16.715-.271 27.807 1.678 45.274 1.126 10.102 2.814 20.084 5.053 29.895l69.527 40.133c.144-.016-5.893.67 178.742-20.301l10-47.5z" fill="#dc3931"/><path d="m255.013 209.706v95l124.128 24.301 124.128-44.071c4.478-19.612 6.744-39.834 6.744-60.23 0-5.246 0-9.754 0-15-7.194 0-247.807 0-255 0z" fill="#b53922"/><path d="m255.003 304.706c-39.999 0-39.996-20-79.99-20-40 0-40 20-80 20-37.545 0-39.77-17.545-72.87-19.771-.159-.001-15.252-.061-15.399-.061 15.372 67.424 56.062 123.921 113.27 158.475l67.5 10 67.5-10 10-69.322-10-69.32c-.005-.001-.007-.001-.011-.001z" fill="#f55126"/><path d="m503.269 284.935c-5.381 0-10.005 0-15.386 0-33.034 2.221-35.4 19.771-72.87 19.771-40.008 0-40.007-20-80.01-20-40.002 0-39.999 19.996-79.99 20v138.643l67.5 10 67.5-10c55.208-33.346 97.348-88.747 113.256-158.414z" fill="#dc3931"/><g><g><path d="m165.013 344.706h30v30h-30z" fill="#fae959"/></g></g><path d="m240.013 359.706h15v30h-15z" fill="#fae959"/><path d="m255.013 359.706h15v30h-15z" fill="#f8c51a"/><g><g><path d="m315.013 344.706h30v30h-30z" fill="#f8c51a"/></g></g><g><g><g><path d="m95.891 176.102c-1.91-1.635-18.69-16.633-19.582-39.605-.588-15.119 5.713-29.385 18.728-42.398 6.86-6.861 10.213-13.597 9.963-20.021-.385-9.913-9.021-17.901-9.108-17.976l19.504-22.795c1.91 1.635 18.691 16.634 19.582 39.606.587 15.12-5.714 29.384-18.728 42.397-6.8 6.801-10.154 13.477-9.97 19.844.296 10.186 9.131 18.164 9.221 18.244l-.105-.092z" fill="#f6f3ec"/></g></g></g><g><g><g><path d="m407.901 64.29c2.685-4.98 6.282-8.229 6.339-8.278l-.053.046-.053.045c-2.002-2.34 7.225 8.443-19.504-22.795-1.212 1.037-8.412 7.457-13.741 17.88-7.417 14.513-7.88 30.341-1.047 44.88 3.134 6.666 7.784 13.095 13.934 19.244 11.61 11.61 11.767 21.14 7.089 29.809-2.685 4.98-6.283 8.229-6.34 8.279l.053-.046.053-.046c2.002 2.34-7.225-8.443 19.504 22.795 1.212-1.037 8.412-7.456 13.74-17.879 3.068-6.002 5.516-13.332 5.842-21.727.64-16.475-6.928-30.6-18.728-42.398-3.018-3.018-5.357-6.012-7.009-8.964-3.898-6.967-3.981-13.61-.079-20.845z" fill="#f0e8d4"/></g></g></g><path d="m245.261.307c-1.212 1.037-8.412 7.457-13.74 17.88-3.068 6.002-5.516 13.332-5.842 21.727-.645 16.639 7.092 30.762 18.728 42.397 11.421 11.42 11.88 20.927 7.088 29.81-2.686 4.979-6.282 8.228-6.339 8.278l.053-.046.053-.046c3.41 3.986 6.342 7.412 9.752 11.398v-31.532l6.167-25.751-6.167-33.249v-29.467c-3.411-3.987-6.343-7.413-9.753-11.399z" fill="#f6f3ec"/><path d="m279.552 80.342c-3.133-6.666-7.783-13.094-13.933-19.244-11.527-11.527-11.817-21.045-7.088-29.809 2.686-4.981 6.282-8.229 6.339-8.278l-.053.046-.053.045c-.998-1.166 3.612 4.221-9.752-11.397v120c.998 1.166-3.612-4.221 9.752 11.396 1.212-1.037 8.412-7.456 13.74-17.879 7.419-14.509 7.883-30.341 1.048-44.88z" fill="#f0e8d4"/><path d="m120.013 443.348v66.358h135l10-33.179-10-33.179z" fill="#fae959"/><path d="m255.013 443.348h135v66.357h-135z" fill="#f8c51a"/></g></svg>